<svg xmlns="http://www.w3.org/2000/svg" width="16" height="17" viewBox="0 0 16 17" fill="none">
  <path d="M2.66634 14.1068H13.333C13.6866 14.1068 14.0258 13.9663 14.2758 13.7162C14.5259 13.4662 14.6663 13.1271 14.6663 12.7734V6.10677C14.6663 5.75315 14.5259 5.41401 14.2758 5.16396C14.0258 4.91391 13.6866 4.77344 13.333 4.77344H8.04634C7.82673 4.7723 7.6108 4.71694 7.41774 4.61226C7.22468 4.50759 7.06046 4.35685 6.93967 4.17344L6.39301 3.37344C6.27222 3.19002 6.10801 3.03928 5.91494 2.93461C5.72188 2.82994 5.50595 2.77457 5.28634 2.77344H2.66634C2.31272 2.77344 1.97358 2.91391 1.72353 3.16396C1.47348 3.41401 1.33301 3.75315 1.33301 4.10677V12.7734C1.33301 13.5068 1.93301 14.1068 2.66634 14.1068Z" stroke="white" stroke-width="1.3" stroke-linecap="round" stroke-linejoin="round"/>
  <path d="M8 7.43994V11.4399" stroke="white" stroke-width="1.3" stroke-linecap="round" stroke-linejoin="round"/>
  <path d="M6 9.43994H10" stroke="white" stroke-width="1.3" stroke-linecap="round" stroke-linejoin="round"/>
</svg>
