<svg xmlns="http://www.w3.org/2000/svg" width="16" height="17" viewBox="0 0 16 17" fill="none">
  <g clip-path="url(#clip0_3699_3856)">
    <path d="M19 3.32227H5C3.89543 3.32227 3 4.2177 3 5.32227V19.3223C3 20.4268 3.89543 21.3223 5 21.3223H19C20.1046 21.3223 21 20.4268 21 19.3223V5.32227C21 4.2177 20.1046 3.32227 19 3.32227Z" stroke="black" stroke-width="1.3" stroke-linecap="round" stroke-linejoin="round"/>
    <path d="M9 11.3223C10.1046 11.3223 11 10.4268 11 9.32227C11 8.2177 10.1046 7.32227 9 7.32227C7.89543 7.32227 7 8.2177 7 9.32227C7 10.4268 7.89543 11.3223 9 11.3223Z" stroke="black" stroke-width="1.3" stroke-linecap="round" stroke-linejoin="round"/>
    <path d="M21 15.3225L17.914 12.2365C17.5389 11.8615 17.0303 11.6509 16.5 11.6509C15.9697 11.6509 15.4611 11.8615 15.086 12.2365L6 21.3225" stroke="black" stroke-width="1.3" stroke-linecap="round" stroke-linejoin="round"/>
  </g>
  <defs>
    <clipPath id="clip0_3699_3856">
      <rect width="16" height="16" fill="white" transform="translate(0 0.322266)"/>
    </clipPath>
  </defs>
</svg>
